<svg width="70" height="39" viewBox="0 0 70 39" fill="none" xmlns="http://www.w3.org/2000/svg">
<rect opacity="0.5" x="9.15503" y="11.0303" width="26.117" height="10.5712" rx="5.28558" transform="rotate(60 9.15503 11.0303)" fill="#E63946"/>
<rect opacity="0.5" x="25.1791" y="11.0303" width="26.117" height="10.5712" rx="5.28558" transform="rotate(60 25.1791 11.0303)" fill="#E63946"/>
<rect opacity="0.7" width="26.117" height="10.5712" rx="5.28558" transform="matrix(-0.5 0.866025 0.866025 0.5 21.4927 11.0303)" fill="#E63946"/>
<rect opacity="0.7" width="26.117" height="10.5712" rx="5.28558" transform="matrix(-0.5 0.866025 0.866025 0.5 37.5166 11.0303)" fill="#E63946"/>
<path d="M64.0965 24.1025C64.0965 31.3221 58.2439 37.1748 51.0243 37.1748C43.8047 37.1748 37.952 31.3221 37.952 24.1025C37.952 16.8829 43.8047 11.0303 51.0243 11.0303C58.2439 11.0303 64.0965 16.8829 64.0965 24.1025ZM44.7378 24.1025C44.7378 27.5744 47.5524 30.389 51.0243 30.389C54.4962 30.389 57.3107 27.5744 57.3107 24.1025C57.3107 20.6306 54.4962 17.8161 51.0243 17.8161C47.5524 17.8161 44.7378 20.6306 44.7378 24.1025Z" fill="#D6283B"/>
<ellipse cx="64.0965" cy="5.96952" rx="5.9036" ry="5.9036" fill="#F06262"/>
</svg>
